# xmcd
#
# Track frame offsets:
#	150
#	32602
#	55907
#	79502
#	95494
#	130277
#	141497
#	173356
#
# Disc length: 2598 seconds
#
# Revision: 1
# Processed by: cddbd v1.5.2PL0 Copyright (c) Steve Scherf et al.
# Submitted via: audiograbber 1.83.01
#
DISCID=610a2408
DTITLE=Grateful Dead - 70-11-20A The Palestra, Uni of Rochester, Rochester NY
DYEAR=1900
DGENRE=
TTITLE0=Truckin'
TTITLE1=The Other One
TTITLE2=St Stephen
TTITLE3=Not Fade Away
TTITLE4=Going Down The Road Feeling Bad
TTITLE5=Not Fade Away
TTITLE6=King Bee
TTITLE7=Casey Jones
EXTD=
EXTT0=
EXTT1=
EXTT2=
EXTT3=
EXTT4=
EXTT5=
EXTT6=
EXTT7=
PLAYORDER=
